<?xml version="1.0" encoding="utf-8"?>
<!-- Generator: Adobe Illustrator 21.1.0, SVG Export Plug-In . SVG Version: 6.00 Build 0)  -->
<svg version="1.1" id="Layer_1" xmlns="http://www.w3.org/2000/svg" xmlns:xlink="http://www.w3.org/1999/xlink" x="0px" y="0px"
	 viewBox="0 0 810 223.5" style="enable-background:new 0 0 810 223.5;" xml:space="preserve">
<style type="text/css">
	.st0{fill:url(#SVGID_1_);}
	.st1{fill:url(#SVGID_2_);}
	.st2{fill:url(#SVGID_3_);}
	.st3{fill:url(#SVGID_4_);}
	.st4{fill:url(#SVGID_5_);}
	.st5{fill:url(#SVGID_6_);}
	.st6{fill:#005596;}
	.st7{fill:#0079C1;}
</style>
<g>
	
		<linearGradient id="SVGID_1_" gradientUnits="userSpaceOnUse" x1="236" y1="202.91" x2="236" y2="202.91" gradientTransform="matrix(1 0 0 -1 0 226.01)">
		<stop  offset="0" style="stop-color:#006AB6"/>
		<stop  offset="0.6319" style="stop-color:#00AEEF"/>
		<stop  offset="0.6678" style="stop-color:#00AEEA"/>
		<stop  offset="0.7134" style="stop-color:#00AFDF"/>
		<stop  offset="0.7644" style="stop-color:#00B1CF"/>
		<stop  offset="0.8192" style="stop-color:#00B4B9"/>
		<stop  offset="0.8772" style="stop-color:#17B89B"/>
		<stop  offset="0.9377" style="stop-color:#61BE74"/>
		<stop  offset="1" style="stop-color:#8DC63F"/>
	</linearGradient>
	<path class="st0" d="M236,23.1L236,23.1L236,23.1L236,23.1z"/>
	
		<linearGradient id="SVGID_2_" gradientUnits="userSpaceOnUse" x1="132.7" y1="202.91" x2="132.7" y2="202.91" gradientTransform="matrix(1 0 0 -1 0 226.01)">
		<stop  offset="0" style="stop-color:#006AB6"/>
		<stop  offset="0.6319" style="stop-color:#00AEEF"/>
		<stop  offset="0.6678" style="stop-color:#00AEEA"/>
		<stop  offset="0.7134" style="stop-color:#00AFDF"/>
		<stop  offset="0.7644" style="stop-color:#00B1CF"/>
		<stop  offset="0.8192" style="stop-color:#00B4B9"/>
		<stop  offset="0.8772" style="stop-color:#17B89B"/>
		<stop  offset="0.9377" style="stop-color:#61BE74"/>
		<stop  offset="1" style="stop-color:#8DC63F"/>
	</linearGradient>
	<path class="st1" d="M132.7,23.1L132.7,23.1L132.7,23.1z"/>
	
		<linearGradient id="SVGID_3_" gradientUnits="userSpaceOnUse" x1="236" y1="23.91" x2="236" y2="23.91" gradientTransform="matrix(1 0 0 -1 0 226.01)">
		<stop  offset="0" style="stop-color:#006AB6"/>
		<stop  offset="0.6319" style="stop-color:#00AEEF"/>
		<stop  offset="0.6678" style="stop-color:#00AEEA"/>
		<stop  offset="0.7134" style="stop-color:#00AFDF"/>
		<stop  offset="0.7644" style="stop-color:#00B1CF"/>
		<stop  offset="0.8192" style="stop-color:#00B4B9"/>
		<stop  offset="0.8772" style="stop-color:#17B89B"/>
		<stop  offset="0.9377" style="stop-color:#61BE74"/>
		<stop  offset="1" style="stop-color:#8DC63F"/>
	</linearGradient>
	<path class="st2" d="M236,202.1L236,202.1L236,202.1L236,202.1z"/>
	
		<linearGradient id="SVGID_4_" gradientUnits="userSpaceOnUse" x1="287.7" y1="113.41" x2="287.7" y2="113.41" gradientTransform="matrix(1 0 0 -1 0 226.01)">
		<stop  offset="0" style="stop-color:#006AB6"/>
		<stop  offset="0.6319" style="stop-color:#00AEEF"/>
		<stop  offset="0.6678" style="stop-color:#00AEEA"/>
		<stop  offset="0.7134" style="stop-color:#00AFDF"/>
		<stop  offset="0.7644" style="stop-color:#00B1CF"/>
		<stop  offset="0.8192" style="stop-color:#00B4B9"/>
		<stop  offset="0.8772" style="stop-color:#17B89B"/>
		<stop  offset="0.9377" style="stop-color:#61BE74"/>
		<stop  offset="1" style="stop-color:#8DC63F"/>
	</linearGradient>
	<path class="st3" d="M287.7,112.6L287.7,112.6L287.7,112.6L287.7,112.6z"/>
	
		<linearGradient id="SVGID_5_" gradientUnits="userSpaceOnUse" x1="132.7" y1="23.91" x2="132.7" y2="23.91" gradientTransform="matrix(1 0 0 -1 0 226.01)">
		<stop  offset="0" style="stop-color:#006AB6"/>
		<stop  offset="0.6319" style="stop-color:#00AEEF"/>
		<stop  offset="0.6678" style="stop-color:#00AEEA"/>
		<stop  offset="0.7134" style="stop-color:#00AFDF"/>
		<stop  offset="0.7644" style="stop-color:#00B1CF"/>
		<stop  offset="0.8192" style="stop-color:#00B4B9"/>
		<stop  offset="0.8772" style="stop-color:#17B89B"/>
		<stop  offset="0.9377" style="stop-color:#61BE74"/>
		<stop  offset="1" style="stop-color:#8DC63F"/>
	</linearGradient>
	<path class="st4" d="M132.7,202.1L132.7,202.1L132.7,202.1z"/>
	
		<linearGradient id="SVGID_6_" gradientUnits="userSpaceOnUse" x1="67.3512" y1="113.41" x2="301.3971" y2="113.41" gradientTransform="matrix(1 0 0 -1 0 226.01)">
		<stop  offset="0" style="stop-color:#006AB6"/>
		<stop  offset="0.6319" style="stop-color:#00AEEF"/>
		<stop  offset="0.6678" style="stop-color:#00AEEA"/>
		<stop  offset="0.7134" style="stop-color:#00AFDF"/>
		<stop  offset="0.7644" style="stop-color:#00B1CF"/>
		<stop  offset="0.8192" style="stop-color:#00B4B9"/>
		<stop  offset="0.8772" style="stop-color:#17B89B"/>
		<stop  offset="0.9377" style="stop-color:#61BE74"/>
		<stop  offset="1" style="stop-color:#8DC63F"/>
	</linearGradient>
	<path class="st5" d="M299.6,105.8l-51.7-89.5c-2.4-4.2-7-6.8-11.9-6.8H132.7c-4.9,0-9.4,2.6-11.9,6.8L91.6,67h15l24.2-41.9
		c0.5-0.8,1.2-1.5,2-2l0,0l0,0c0.8-0.5,1.7-0.7,2.7-0.7h97.9c1,0,1.9,0.3,2.7,0.7l0,0l0,0c0.8,0.5,1.5,1.1,2,2l48.9,84.8
		c0.5,0.8,0.7,1.8,0.7,2.7l0,0l0,0c0,0.9-0.2,1.9-0.7,2.7l-49,84.8c-0.5,0.8-1.2,1.5-2,2l0,0l0,0c-0.8,0.5-1.7,0.7-2.7,0.7h-97.9
		c-1,0-1.9-0.3-2.7-0.7l0,0l0,0c-0.8-0.5-1.5-1.2-2-2L106,157.3H91l29.8,51.6c2.4,4.2,7,6.8,11.9,6.8H236c4.9,0,9.4-2.6,11.9-6.8
		l51.7-89.5C302,115.2,302,110,299.6,105.8z"/>
</g>
<g>
	<path class="st6" d="M16.5,77.6h14.6l12.9,69H31.1l-1.7-11.3H17.7l-1.9,11.3H3.1L16.5,77.6z M23.9,95.1l-4.6,29.6h8.8"/>
	<path class="st6" d="M45.7,122.3h12.7v8c0,4,0,8,6.2,8c6.3,0,6.3-4.1,6.3-10.3c0-4.9-1-6.9-4.3-9.2l-12.1-8.1
		c-6.5-4.4-8.2-9.2-8.2-16.2c0-5.4,0.5-10.6,5-14.3c2.5-2.2,7.2-4.1,13.9-4.1c7.4,0,17.6,3,17.6,14.9v6.8H70v-5c0-3.3,0-7-5.6-7
		c-3.4,0-5.9,1.3-5.9,6.8c0,5.8,1.3,7,4,8.9L75,110c2.4,1.8,5.1,4.2,6.6,6.8c1.9,3.1,1.9,5.3,1.9,10.9c0,6.2,0,10-2.3,13.6
		c-3.8,6.2-11.7,6.8-16.4,6.8c-10.9,0-19.2-4.1-19.2-15.7v-10.1H45.7z"/>
	<path class="st6" d="M88.7,77.6h12.7v27.2H113V77.6h12.7v69.1H113V115h-11.6v31.6H88.7V77.6z"/>
	<path class="st6" d="M132.6,77.5H158c12.4,0,12.4,8.3,12.4,14.7v7.4c0,8.8-2.7,10.4-8.9,11.7c3,0.8,9.4,2.6,9.4,11.9v14.1
		c0,3.5,0.3,7.1,2.9,9.3h-14c-1.5-2.6-1.9-5.6-1.9-7.6v-14.8c0-4.7,0-8-6.7-8h-6.1v30.4h-12.7V77.5H132.6z M145.4,106.3h6.7
		c5.8,0,5.9-3.1,5.9-6.7V93c0-5.7-3-5.7-5.9-5.7h-6.7V106.3z"/>
	<path class="st6" d="M186.1,77.6h14.6l12.9,69.1h-12.9l-1.7-11.3h-11.7l-1.9,11.3h-12.7L186.1,77.6z M188.8,124.7h8.8l-4.2-29.6
		L188.8,124.7z"/>
	<path class="st6" d="M216.4,77.5h33.5V88h-20.7v16.2h19.5v10.5h-19.5V136h21.6v10.7h-34.3V77.5H216.4z"/>
</g>
<g>
	<path d="M262.3,205.4v6.9h-1v-6.9H259v-0.9h5.7v0.9H262.3z"/>
	<path d="M272,212.3c0-0.2,0.1-6.5,0.1-6.5l-2.5,6.5h-0.8l-2.4-6.4c0,0,0.1,6.2,0.1,6.4h-1v-7.8h1.3l2.4,6.4l2.4-6.4h1.3v7.8H272z"
		/>
</g>
<g>
	<path class="st7" d="M337.3,77.6c9.7,0,14.2,3.6,14.2,13.8v6c0,6.8-1.7,10.4-8,11.4c7.9,1.4,8.6,5.2,8.6,12.4v9.8
		c0,10.8-3.8,14.3-15.2,14.3h-21.8V77.6H337.3z M327.7,104.4h4.8c4.4,0,6.6-0.5,6.6-6.2v-4.9c0-4.8-2.1-6-6.4-6h-5V104.4z
		 M327.7,135.6h5.4c4.5,0,6.9-0.4,6.9-6.8v-8c0-5.2-1.4-6.6-6.3-6.6h-6V135.6z"/>
	<path class="st7" d="M360.6,89.1V77.6h11.5v11.5H360.6z M360.6,145.4V96.2h11.5v49.1h-11.5V145.4z"/>
	<path class="st7" d="M379.5,122.1v-9.5h23.8v9.5H379.5z"/>
	<path class="st7" d="M422.7,121.5v9.3c0,2.9,0.4,6.4,6,6.4c5.4,0,6.2-2.8,6.2-8.4v-2.3c0-4.6-1.4-6.6-4.3-8.5l-11.8-7.9
		c-3.7-2.5-8.1-6-8.1-15.9v-1.3c0-11.8,7-16.7,18.4-16.7c8.5,0,17.4,3.7,17.4,14.6v6.7h-12.4v-6c0-3-0.8-5.9-5.6-5.9
		c-3.6,0-5.7,1.3-5.7,7.3c0,3.2,0.1,5.6,4,8.3l12.2,8.3c5,3.4,8.3,8,8.3,14v6.4c0,9.3-3.2,16.9-18.3,16.9c-8.9,0-18.8-2.9-18.8-15.5
		v-9.9h12.5V121.5z"/>
	<path class="st7" d="M468.6,132c0,3.7,1.3,5.2,5.2,5.2c0.7,0,1.2-0.1,1.9-0.2v8.3c-1.2,0.3-2.9,0.6-5.9,0.6
		c-9.5,0-12.5-2.8-12.5-10.2v-31.9h-6.2v-7.6h6.1V78.4h11.3v17.9h6.8v7.6h-6.8V132H468.6z"/>
	<path class="st7" d="M501.5,145.4c-0.9-1.1-1.2-2-1.3-4.3c-2,2.1-4.1,5.4-9.9,5.4c-8.4,0-9.7-6.4-9.7-13.1V130
		c0-7.4,1.9-9.5,7.5-12.3l11.9-6V108c0-4-1.2-5-4-5c-3.6,0-3.9,2-3.9,6.5v1.8h-10.5v-5.6c0-2.3,0.5-10.7,15.2-10.7
		c1.1,0,14.6,0,14.6,10.8v29.9c0,3.6,0,7.9,2.2,9.5h-12.1V145.4z M499.8,120.6l-5.6,3.6c-2.3,1.5-2.6,3.3-2.6,8.2
		c0,3.8,0.7,5.4,2.7,5.4c1.2,0,2.7-0.4,5.5-2.8V120.6z"/>
	<path class="st7" d="M533.6,132c0,3.7,1.3,5.2,5.2,5.2c0.7,0,1.2-0.1,1.9-0.2v8.3c-1.2,0.3-2.9,0.6-5.9,0.6
		c-9.5,0-12.5-2.8-12.5-10.2v-31.9h-6.2v-7.6h6.1V78.4h11.3v17.9h6.8v7.6h-6.8V132H533.6z"/>
	<path class="st7" d="M556.6,123.3v8.6c0,3.6,1.2,5.5,4.2,5.5c3.7,0,4-3.4,4-6.6v-1.6h11v4c0,9.4-6,13.2-15.1,13.2
		c-12.7,0-15.6-7.9-15.6-15.8v-20.7c0-9.1,5.9-14.5,15.7-14.5c9.4,0,15.2,5.2,15.2,13.2v14.9h-19.4V123.3z M564.7,109.2
		c0-1.1,0-4.9-3.9-4.9c-4.1,0-4.2,3.6-4.2,4.9v6h8.2L564.7,109.2L564.7,109.2z"/>
	<path class="st7" d="M633.6,132.5c0,6-1.6,13.9-13.8,13.9c-11.4,0-13.2-9-13.2-14.9v-41c0-10.1,6.9-13.5,13.4-13.5
		c7.3,0,12.9,4,12.9,12.6v10h-4.7v-5.9c0-6.6-0.5-12.4-8.1-12.4c-8.3,0-8.9,7.6-8.9,10.1V128c0,9.3,2,14,9.4,14
		c6.1,0,8.3-4.2,8.3-8.9v-11h4.8v10.4H633.6z"/>
	<path class="st7" d="M660.8,145.4v-36.1c0-4.3-0.7-8.7-6.3-8.7c-4.7,0-7.2,3.6-7.7,6.3v38.5h-4.1V77.6h4.1v23.3
		c1.1-1.3,3.7-4.4,8.7-4.4c3.6,0,9.4,1.8,9.4,9.9v39H660.8z"/>
	<path class="st7" d="M697,145.4c-4-0.1-5.4-1.2-6-3.7c-1.4,1.2-4.6,3.7-9.4,3.7c-6.7,0-9.4-5.4-9.4-11.3c0-13.7,12.7-14.6,18.7-20
		v-6.6c0-3.7-1.1-6.8-6-6.8c-5,0-6.6,2.4-6.6,8.8v2.5h-4.1v-2.6c0-9.4,3.7-12.6,10.9-12.6c6.9,0,9.9,3.7,9.9,9.7v33.3
		c0,1.6,1.3,1.7,2.9,1.7v3.8H697V145.4z M691,118.6c-2.4,1.6-5.5,3.2-8,4.6c-4.4,2.6-6.7,5.7-6.7,10.9c0,1.5,0.3,7.4,6.3,7.4
		c3.7,0,6-2,8.4-4.5V118.6z"/>
	<path class="st7" d="M708.8,97.1v4.2c2.4-3.6,6.2-4.7,8.9-4.7c7.6,0,9.1,6.9,9.1,12.9v25.1c0,6.3-3.7,11.1-9.8,11.1
		c-3.7,0-7.1-2.2-8.3-4.2V161h-4.1V97.1H708.8z M722.7,107.6c0-3.8-2-7.3-6.2-7.3c-4.5,0-7.2,3.6-7.7,6.2v29.8
		c0.9,3.4,4.1,5.5,7.5,5.5c6,0,6.4-5.4,6.4-9.4V107.6z"/>
	<path class="st7" d="M732.3,97.1h5.1V84.6h4.1v12.5h7.3v3.8h-7.3v38c0,2.8,2.8,2.8,3.6,2.8c1.2,0,2.6-0.1,3.6-0.2v3.8
		c-1.6,0.1-3.1,0.2-4.3,0.2c-5.4,0-7.1-1.7-7.1-5.6v-39.1h-5.1v-3.7H732.3z"/>
	<path class="st7" d="M775.6,134.6c0,5.1-2.8,10.8-11.1,10.8c-6,0-10.9-3.3-10.9-11.2v-25.9c0-5.9,2.6-11.5,10.9-11.5
		c7.2,0,11.1,3.9,11.1,12.5v12.4h-18v11.9c0,2.7,0.6,8.2,6.9,8.2c6.7,0,7.1-5.1,7.1-9.7v-3.5h4V134.6z M771.5,108.6
		c0-5.6-3.1-8.2-6.9-8.2c-4.8,0-7,3.6-7,8.5v9.2h13.9V108.6z"/>
	<path class="st7" d="M788.5,97.1v8.4c2.1-5.2,6.8-8.1,10.1-9.7v5.5c-1.2,0.4-2.7,0.8-3.7,1.4c-3.9,2.3-5.9,7.5-6.2,8.5v34.1h-4
		V97.1H788.5z"/>
</g>
</svg>
